%
M48
M72
T01C0.0236
T02C0.0320
T03C0.0394
T04C0.0400
T05C0.0470
T06C0.1300
%
T01
X6681Y8310
X6681Y9310
X18181Y4310
X22931Y9060
X25181Y4310
X20181Y13810
X24681Y14810
X15681Y20060
X9681Y19310
T02
X13181Y16310
X13181Y15310
X13181Y13810
X13181Y12810
X15181Y12810
X15181Y13810
X15181Y14810
X15181Y15810
X15181Y16810
X18181Y16810
X18181Y15810
X18181Y14810
X18181Y13810
X18181Y12810
X18181Y11810
X18181Y10810
X18181Y9810
X15181Y9810
X15181Y10810
X15181Y11810
X13181Y11060
X12181Y11060
X13181Y5310
X13181Y4310
X20181Y15310
X20181Y16310
X20181Y17810
X20181Y18810
T03
X20181Y21310
X19181Y21310
X18181Y21310
X16581Y21310
X15581Y21310
X14581Y21310
X13581Y21310
X12581Y21310
X11581Y21310
X10581Y21310
X9581Y21310
X21181Y21310
X22181Y21310
X23181Y21310
X24181Y21310
X25181Y21310
X25181Y2310
X24181Y2310
X23181Y2310
X22181Y2310
X21181Y2310
X20181Y2310
X18181Y2310
X17181Y2310
X16181Y2310
X15181Y2310
X14181Y2310
X13181Y2310
T04
X5181Y6150
X5181Y7230
X4181Y6690
X4181Y7770
X5181Y8310
X5181Y9390
X4181Y8850
X4181Y9930
X5181Y10470
X25181Y10730
X25181Y11810
X26181Y11270
X26181Y10190
X25181Y9650
X26181Y12350
X26181Y13430
X25181Y12890
X25181Y13970
T05
X28431Y19310
X28431Y21310
X28431Y4310
X28431Y2310
X1931Y17810
X1931Y19810
T06
X4681Y3380
X4681Y13240
X25681Y16740
X25681Y6880
M30
