G75*
G70*
%OFA0B0*%
%FSLAX24Y24*%
%IPPOS*%
%LPD*%
%AMOC8*
5,1,8,0,0,1.08239X$1,22.5*
%
%ADD10C,0.0640*%
%ADD11OC8,0.0640*%
%ADD12OC8,0.0720*%
%ADD13C,0.2080*%
%ADD14C,0.0714*%
%ADD15C,0.0790*%
D10*
X014901Y009810D02*
X015461Y009810D01*
X015461Y010810D02*
X014901Y010810D01*
X014901Y011810D02*
X015461Y011810D01*
X015461Y012810D02*
X014901Y012810D01*
X014901Y013810D02*
X015461Y013810D01*
X015461Y014810D02*
X014901Y014810D01*
X014901Y015810D02*
X015461Y015810D01*
X015461Y016810D02*
X014901Y016810D01*
X017901Y016810D02*
X018461Y016810D01*
X018461Y015810D02*
X017901Y015810D01*
X017901Y014810D02*
X018461Y014810D01*
X018461Y013810D02*
X017901Y013810D01*
X017901Y012810D02*
X018461Y012810D01*
X018461Y011810D02*
X017901Y011810D01*
X017901Y010810D02*
X018461Y010810D01*
X018461Y009810D02*
X017901Y009810D01*
D11*
X013181Y011060D03*
X012181Y011060D03*
X013181Y012810D03*
X013181Y013810D03*
X013181Y015310D03*
X013181Y016310D03*
X020181Y016310D03*
X020181Y015310D03*
X020181Y017810D03*
X020181Y018810D03*
X013181Y005310D03*
X013181Y004310D03*
D12*
X005181Y006150D03*
X005181Y007230D03*
X004181Y006690D03*
X004181Y007770D03*
X005181Y008310D03*
X005181Y009390D03*
X004181Y008850D03*
X004181Y009930D03*
X005181Y010470D03*
X025181Y010730D03*
X025181Y011810D03*
X026181Y011270D03*
X026181Y010190D03*
X025181Y009650D03*
X026181Y012350D03*
X026181Y013430D03*
X025181Y012890D03*
X025181Y013970D03*
D13*
X004681Y003380D03*
X004681Y013240D03*
X025681Y016740D03*
X025681Y006880D03*
D14*
X025181Y002627D02*
X025181Y001993D01*
X024181Y001993D02*
X024181Y002627D01*
X023181Y002627D02*
X023181Y001993D01*
X022181Y001993D02*
X022181Y002627D01*
X021181Y002627D02*
X021181Y001993D01*
X020181Y001993D02*
X020181Y002627D01*
X018181Y002627D02*
X018181Y001993D01*
X017181Y001993D02*
X017181Y002627D01*
X016181Y002627D02*
X016181Y001993D01*
X015181Y001993D02*
X015181Y002627D01*
X014181Y002627D02*
X014181Y001993D01*
X013181Y001993D02*
X013181Y002627D01*
X013581Y020993D02*
X013581Y021627D01*
X012581Y021627D02*
X012581Y020993D01*
X011581Y020993D02*
X011581Y021627D01*
X010581Y021627D02*
X010581Y020993D01*
X009581Y020993D02*
X009581Y021627D01*
X014581Y021627D02*
X014581Y020993D01*
X015581Y020993D02*
X015581Y021627D01*
X016581Y021627D02*
X016581Y020993D01*
X018181Y020993D02*
X018181Y021627D01*
X019181Y021627D02*
X019181Y020993D01*
X020181Y020993D02*
X020181Y021627D01*
X021181Y021627D02*
X021181Y020993D01*
X022181Y020993D02*
X022181Y021627D01*
X023181Y021627D02*
X023181Y020993D01*
X024181Y020993D02*
X024181Y021627D01*
X025181Y021627D02*
X025181Y020993D01*
D15*
X028076Y021310D02*
X028786Y021310D01*
X028786Y019310D02*
X028076Y019310D01*
X028076Y004310D02*
X028786Y004310D01*
X028786Y002310D02*
X028076Y002310D01*
X002286Y017810D02*
X001576Y017810D01*
X001576Y019810D02*
X002286Y019810D01*
M02*
