G75*
G70*
%OFA0B0*%
%FSLAX24Y24*%
%IPPOS*%
%LPD*%
%AMOC8*
5,1,8,0,0,1.08239X$1,22.5*
%
%ADD10C,0.0040*%
%ADD11C,0.0060*%
%ADD12C,0.0100*%
D10*
X006451Y002318D02*
X006451Y002625D01*
X006451Y002778D02*
X006911Y002778D01*
X006911Y003085D01*
X006681Y002932D02*
X006681Y002778D01*
X006451Y002778D02*
X006451Y003085D01*
X006451Y003239D02*
X006451Y003546D01*
X006451Y003699D02*
X006911Y003699D01*
X006681Y003699D02*
X006681Y004006D01*
X006681Y004159D02*
X006681Y004313D01*
X006451Y004466D02*
X006451Y004159D01*
X006911Y004159D01*
X006911Y004466D01*
X006911Y004620D02*
X006451Y004620D01*
X006451Y004850D01*
X006528Y004927D01*
X006681Y004927D01*
X006758Y004850D01*
X006758Y004620D01*
X006758Y004773D02*
X006911Y004927D01*
X006911Y004006D02*
X006451Y004006D01*
X006451Y003392D02*
X006911Y003392D01*
X006911Y002471D02*
X006451Y002471D01*
X011951Y002597D02*
X011951Y002291D01*
X012411Y002291D01*
X012411Y002597D01*
X012335Y002751D02*
X012411Y002828D01*
X012411Y002981D01*
X012335Y003058D01*
X012258Y003058D01*
X012181Y002981D01*
X012181Y002828D01*
X012105Y002751D01*
X012028Y002751D01*
X011951Y002828D01*
X011951Y002981D01*
X012028Y003058D01*
X011951Y003211D02*
X012411Y003211D01*
X012411Y003518D01*
X012181Y003365D02*
X012181Y003211D01*
X011951Y003211D02*
X011951Y003518D01*
X011951Y003672D02*
X011951Y003979D01*
X011951Y003825D02*
X012411Y003825D01*
X013951Y003907D02*
X013951Y004060D01*
X014028Y004137D01*
X014105Y004137D01*
X014181Y004060D01*
X014258Y004137D01*
X014335Y004137D01*
X014411Y004060D01*
X014411Y003907D01*
X014335Y003830D01*
X014181Y003984D02*
X014181Y004060D01*
X014028Y003830D02*
X013951Y003907D01*
X014335Y004291D02*
X014335Y004367D01*
X014411Y004367D01*
X014411Y004291D01*
X014335Y004291D01*
X014335Y004521D02*
X014411Y004597D01*
X014411Y004751D01*
X014335Y004828D01*
X014258Y004828D01*
X014181Y004751D01*
X014181Y004674D01*
X014181Y004751D02*
X014105Y004828D01*
X014028Y004828D01*
X013951Y004751D01*
X013951Y004597D01*
X014028Y004521D01*
X013951Y004981D02*
X014258Y004981D01*
X014411Y005135D01*
X014258Y005288D01*
X013951Y005288D01*
X014951Y004597D02*
X015258Y004597D01*
X015411Y004444D01*
X015258Y004291D01*
X014951Y004291D01*
X014951Y004137D02*
X014951Y003830D01*
X015181Y003830D01*
X015105Y003984D01*
X015105Y004060D01*
X015181Y004137D01*
X015335Y004137D01*
X015411Y004060D01*
X015411Y003907D01*
X015335Y003830D01*
X015951Y003907D02*
X016028Y003830D01*
X016335Y003830D01*
X016411Y003907D01*
X016411Y004060D01*
X016335Y004137D01*
X016181Y004137D01*
X016181Y003984D01*
X016028Y004137D02*
X015951Y004060D01*
X015951Y003907D01*
X015951Y004291D02*
X016411Y004597D01*
X015951Y004597D01*
X015951Y004751D02*
X015951Y004981D01*
X016028Y005058D01*
X016335Y005058D01*
X016411Y004981D01*
X016411Y004751D01*
X015951Y004751D01*
X015951Y004291D02*
X016411Y004291D01*
X016951Y004291D02*
X017411Y004597D01*
X016951Y004597D01*
X016951Y004751D02*
X016951Y004981D01*
X017028Y005058D01*
X017335Y005058D01*
X017411Y004981D01*
X017411Y004751D01*
X016951Y004751D01*
X016951Y004291D02*
X017411Y004291D01*
X017335Y004137D02*
X017181Y004137D01*
X017181Y003984D01*
X017028Y004137D02*
X016951Y004060D01*
X016951Y003907D01*
X017028Y003830D01*
X017335Y003830D01*
X017411Y003907D01*
X017411Y004060D01*
X017335Y004137D01*
X017874Y004367D02*
X017951Y004367D01*
X018105Y004367D02*
X018411Y004367D01*
X018411Y004291D02*
X018411Y004444D01*
X018411Y004597D02*
X018105Y004597D01*
X018105Y004828D01*
X018181Y004904D01*
X018411Y004904D01*
X018105Y004367D02*
X018105Y004291D01*
X018258Y004137D02*
X017951Y004137D01*
X017951Y003830D02*
X018258Y003830D01*
X018411Y003984D01*
X018258Y004137D01*
X019951Y003984D02*
X020105Y004137D01*
X020411Y004137D01*
X020335Y004291D02*
X020028Y004597D01*
X020335Y004597D01*
X020411Y004521D01*
X020411Y004367D01*
X020335Y004291D01*
X020028Y004291D01*
X019951Y004367D01*
X019951Y004521D01*
X020028Y004597D01*
X020181Y004137D02*
X020181Y003830D01*
X020105Y003830D02*
X019951Y003984D01*
X020105Y003830D02*
X020411Y003830D01*
X020951Y003984D02*
X021105Y004137D01*
X021411Y004137D01*
X021411Y004291D02*
X021411Y004597D01*
X021411Y004444D02*
X020951Y004444D01*
X021105Y004291D01*
X021181Y004137D02*
X021181Y003830D01*
X021105Y003830D02*
X020951Y003984D01*
X021105Y003830D02*
X021411Y003830D01*
X021951Y003984D02*
X022105Y004137D01*
X022411Y004137D01*
X022411Y004291D02*
X022105Y004597D01*
X022028Y004597D01*
X021951Y004521D01*
X021951Y004367D01*
X022028Y004291D01*
X022181Y004137D02*
X022181Y003830D01*
X022105Y003830D02*
X022411Y003830D01*
X022105Y003830D02*
X021951Y003984D01*
X022411Y004291D02*
X022411Y004597D01*
X022951Y004521D02*
X022951Y004367D01*
X023028Y004291D01*
X023105Y004137D02*
X023411Y004137D01*
X023335Y004291D02*
X023411Y004367D01*
X023411Y004521D01*
X023335Y004597D01*
X023258Y004597D01*
X023181Y004521D01*
X023181Y004444D01*
X023181Y004521D02*
X023105Y004597D01*
X023028Y004597D01*
X022951Y004521D01*
X023105Y004137D02*
X022951Y003984D01*
X023105Y003830D01*
X023411Y003830D01*
X023181Y003830D02*
X023181Y004137D01*
X023951Y003984D02*
X024105Y004137D01*
X024411Y004137D01*
X024181Y004137D02*
X024181Y003830D01*
X024105Y003830D02*
X023951Y003984D01*
X024105Y003830D02*
X024411Y003830D01*
X024181Y004291D02*
X024181Y004597D01*
X023951Y004521D02*
X024181Y004291D01*
X024411Y004521D02*
X023951Y004521D01*
X024355Y004830D02*
X024201Y004984D01*
X024201Y005291D01*
X024508Y005291D02*
X024508Y004984D01*
X024355Y004830D01*
X024662Y004830D02*
X024969Y004830D01*
X025122Y004830D02*
X025122Y005291D01*
X025352Y005291D01*
X025429Y005214D01*
X025429Y005060D01*
X025352Y004984D01*
X025122Y004984D01*
X025276Y004984D02*
X025429Y004830D01*
X025335Y004597D02*
X025181Y004597D01*
X025105Y004521D01*
X025105Y004444D01*
X025181Y004291D01*
X024951Y004291D01*
X024951Y004597D01*
X024662Y004830D02*
X024662Y005291D01*
X024969Y005291D01*
X024815Y005060D02*
X024662Y005060D01*
X025335Y004597D02*
X025411Y004521D01*
X025411Y004367D01*
X025335Y004291D01*
X025411Y004137D02*
X025105Y004137D01*
X024951Y003984D01*
X025105Y003830D01*
X025411Y003830D01*
X025181Y003830D02*
X025181Y004137D01*
X025931Y004080D02*
X025931Y004387D01*
X025736Y004830D02*
X025736Y005291D01*
X025889Y005291D02*
X025582Y005291D01*
X025931Y002387D02*
X025931Y002080D01*
X025778Y002234D02*
X026085Y002234D01*
X015683Y007157D02*
X015607Y007080D01*
X015453Y007080D01*
X015377Y007157D01*
X015223Y007080D02*
X014916Y007080D01*
X015070Y007080D02*
X015070Y007541D01*
X014916Y007387D01*
X014763Y007464D02*
X014763Y007157D01*
X014686Y007080D01*
X014533Y007080D01*
X014456Y007157D01*
X014763Y007464D01*
X014686Y007541D01*
X014533Y007541D01*
X014456Y007464D01*
X014456Y007157D01*
X014302Y007080D02*
X013995Y007080D01*
X014302Y007387D01*
X014302Y007464D01*
X014226Y007541D01*
X014072Y007541D01*
X013995Y007464D01*
X013382Y007464D02*
X013382Y007157D01*
X013305Y007080D01*
X013151Y007080D01*
X013075Y007157D01*
X013151Y007310D02*
X013382Y007310D01*
X013382Y007464D02*
X013305Y007541D01*
X013151Y007541D01*
X013075Y007464D01*
X013075Y007387D01*
X013151Y007310D01*
X012921Y007080D02*
X012614Y007080D01*
X012768Y007080D02*
X012768Y007541D01*
X012614Y007387D01*
X012001Y007387D02*
X011924Y007310D01*
X011694Y007310D01*
X011694Y007080D02*
X011924Y007080D01*
X012001Y007157D01*
X012001Y007234D01*
X011924Y007310D01*
X012001Y007387D02*
X012001Y007464D01*
X011924Y007541D01*
X011694Y007541D01*
X011694Y007080D01*
X011540Y007080D02*
X011233Y007080D01*
X011233Y007541D01*
X011540Y007541D01*
X011387Y007310D02*
X011233Y007310D01*
X011080Y007541D02*
X010773Y007541D01*
X010773Y007080D01*
X010773Y007310D02*
X010926Y007310D01*
X010159Y007157D02*
X010082Y007080D01*
X009929Y007080D01*
X009852Y007157D01*
X010159Y007464D01*
X010159Y007157D01*
X009852Y007157D02*
X009852Y007464D01*
X009929Y007541D01*
X010082Y007541D01*
X010159Y007464D01*
X009699Y007157D02*
X009699Y007080D01*
X009622Y007080D01*
X009622Y007157D01*
X009699Y007157D01*
X009469Y007080D02*
X009162Y007080D01*
X009315Y007080D02*
X009315Y007541D01*
X009162Y007387D01*
X009008Y007387D02*
X008855Y007080D01*
X008701Y007387D01*
X008701Y008080D02*
X008701Y008541D01*
X008932Y008541D01*
X009008Y008464D01*
X009008Y008310D01*
X008932Y008234D01*
X008701Y008234D01*
X009162Y008234D02*
X009392Y008234D01*
X009469Y008310D01*
X009469Y008464D01*
X009392Y008541D01*
X009162Y008541D01*
X009162Y008080D01*
X009315Y008234D02*
X009469Y008080D01*
X009622Y008080D02*
X009776Y008080D01*
X009699Y008080D02*
X009699Y008541D01*
X009622Y008541D02*
X009776Y008541D01*
X009929Y008541D02*
X010236Y008080D01*
X010236Y008541D01*
X010389Y008464D02*
X010389Y008157D01*
X010466Y008080D01*
X010620Y008080D01*
X010696Y008157D01*
X010850Y008080D02*
X011157Y008080D01*
X011003Y008310D02*
X010850Y008310D01*
X010696Y008464D02*
X010620Y008541D01*
X010466Y008541D01*
X010389Y008464D01*
X010850Y008541D02*
X010850Y008080D01*
X010850Y008541D02*
X011157Y008541D01*
X011310Y008541D02*
X011617Y008541D01*
X011464Y008541D02*
X011464Y008080D01*
X011770Y008157D02*
X011770Y008464D01*
X011847Y008541D01*
X012001Y008541D01*
X012077Y008464D01*
X012077Y008157D01*
X012001Y008080D01*
X011847Y008080D01*
X011770Y008157D01*
X012231Y008080D02*
X012231Y008541D01*
X012538Y008080D01*
X012538Y008541D01*
X013151Y008541D02*
X013151Y008080D01*
X013382Y008080D01*
X013458Y008157D01*
X013458Y008464D01*
X013382Y008541D01*
X013151Y008541D01*
X013612Y008464D02*
X013612Y008157D01*
X013689Y008080D01*
X013842Y008080D01*
X013919Y008157D01*
X014072Y008157D02*
X014149Y008080D01*
X014302Y008080D01*
X014379Y008157D01*
X014379Y008234D01*
X014302Y008310D01*
X014149Y008310D01*
X014072Y008387D01*
X014072Y008464D01*
X014149Y008541D01*
X014302Y008541D01*
X014379Y008464D01*
X014533Y008541D02*
X014533Y008080D01*
X014839Y008080D01*
X015453Y007541D02*
X015607Y007541D01*
X015683Y007464D01*
X015683Y007387D01*
X015607Y007310D01*
X015683Y007234D01*
X015683Y007157D01*
X015607Y007310D02*
X015530Y007310D01*
X015377Y007464D02*
X015453Y007541D01*
X013919Y008464D02*
X013842Y008541D01*
X013689Y008541D01*
X013612Y008464D01*
X009929Y008541D02*
X009929Y008080D01*
X012181Y002444D02*
X012181Y002291D01*
X012181Y002137D02*
X012258Y002060D01*
X012258Y001830D01*
X012411Y001830D02*
X011951Y001830D01*
X011951Y002060D01*
X012028Y002137D01*
X012181Y002137D01*
X012258Y001984D02*
X012411Y002137D01*
X023605Y014397D02*
X023451Y014551D01*
X023605Y014704D01*
X023911Y014704D01*
X023835Y014857D02*
X023911Y014934D01*
X023911Y015088D01*
X023835Y015164D01*
X023528Y015164D02*
X023451Y015088D01*
X023451Y014934D01*
X023528Y014857D01*
X023835Y014857D01*
X023681Y014704D02*
X023681Y014397D01*
X023605Y014397D02*
X023911Y014397D01*
X023451Y015318D02*
X023451Y015625D01*
X023451Y015778D02*
X023835Y015778D01*
X023911Y015855D01*
X023911Y016008D01*
X023835Y016085D01*
X023451Y016085D01*
X023605Y016239D02*
X023451Y016392D01*
X023605Y016545D01*
X023911Y016545D01*
X023681Y016545D02*
X023681Y016239D01*
X023605Y016239D02*
X023911Y016239D01*
X023451Y016699D02*
X023451Y017006D01*
X023451Y016852D02*
X023911Y016852D01*
X023835Y017159D02*
X023528Y017159D01*
X023451Y017236D01*
X023451Y017389D01*
X023528Y017466D01*
X023835Y017466D01*
X023911Y017389D01*
X023911Y017236D01*
X023835Y017159D01*
X023911Y017620D02*
X023451Y017620D01*
X023451Y017850D01*
X023528Y017926D01*
X023681Y017926D01*
X023758Y017850D01*
X023758Y017620D01*
X023758Y017773D02*
X023911Y017926D01*
X024201Y018330D02*
X024201Y018791D01*
X024201Y018560D02*
X024508Y018560D01*
X024662Y018407D02*
X024738Y018330D01*
X024892Y018330D01*
X024969Y018407D01*
X024969Y018714D01*
X024892Y018791D01*
X024738Y018791D01*
X024662Y018714D01*
X024662Y018407D01*
X024508Y018330D02*
X024508Y018791D01*
X024411Y019063D02*
X023951Y019063D01*
X023951Y019216D02*
X023951Y018909D01*
X023951Y019370D02*
X024411Y019677D01*
X024411Y019370D02*
X023951Y019677D01*
X023411Y019677D02*
X023411Y019370D01*
X023105Y019677D01*
X023028Y019677D01*
X022951Y019600D01*
X022951Y019447D01*
X023028Y019370D01*
X023028Y019216D02*
X022951Y019140D01*
X022951Y018909D01*
X023411Y018909D01*
X023411Y019140D01*
X023335Y019216D01*
X023028Y019216D01*
X022411Y019140D02*
X022411Y018909D01*
X021951Y018909D01*
X021951Y019140D01*
X022028Y019216D01*
X022335Y019216D01*
X022411Y019140D01*
X022335Y019370D02*
X022411Y019447D01*
X022411Y019600D01*
X022335Y019677D01*
X022258Y019677D01*
X022181Y019600D01*
X022181Y019523D01*
X022181Y019600D02*
X022105Y019677D01*
X022028Y019677D01*
X021951Y019600D01*
X021951Y019447D01*
X022028Y019370D01*
X021411Y019600D02*
X020951Y019600D01*
X021181Y019370D01*
X021181Y019677D01*
X021028Y019216D02*
X020951Y019140D01*
X020951Y018909D01*
X021411Y018909D01*
X021411Y019140D01*
X021335Y019216D01*
X021028Y019216D01*
X020411Y019447D02*
X020335Y019370D01*
X020411Y019447D02*
X020411Y019600D01*
X020335Y019677D01*
X020181Y019677D01*
X020105Y019600D01*
X020105Y019523D01*
X020181Y019370D01*
X019951Y019370D01*
X019951Y019677D01*
X019411Y019600D02*
X019335Y019677D01*
X019258Y019677D01*
X019181Y019600D01*
X019181Y019370D01*
X019335Y019370D01*
X019411Y019447D01*
X019411Y019600D01*
X019181Y019370D02*
X019028Y019523D01*
X018951Y019677D01*
X019028Y019216D02*
X018951Y019140D01*
X018951Y018909D01*
X019411Y018909D01*
X019411Y019140D01*
X019335Y019216D01*
X019028Y019216D01*
X018411Y019140D02*
X018411Y018909D01*
X017951Y018909D01*
X017951Y019140D01*
X018028Y019216D01*
X018335Y019216D01*
X018411Y019140D01*
X018411Y019370D02*
X018335Y019370D01*
X018028Y019677D01*
X017951Y019677D01*
X017951Y019370D01*
X016911Y019447D02*
X016835Y019370D01*
X016758Y019370D01*
X016681Y019447D01*
X016681Y019600D01*
X016758Y019677D01*
X016835Y019677D01*
X016911Y019600D01*
X016911Y019447D01*
X016681Y019447D02*
X016605Y019370D01*
X016528Y019370D01*
X016451Y019447D01*
X016451Y019600D01*
X016528Y019677D01*
X016605Y019677D01*
X016681Y019600D01*
X016528Y019216D02*
X016451Y019140D01*
X016451Y018909D01*
X016911Y018909D01*
X016911Y019140D01*
X016835Y019216D01*
X016528Y019216D01*
X015911Y019140D02*
X015911Y018909D01*
X015451Y018909D01*
X015451Y019140D01*
X015528Y019216D01*
X015835Y019216D01*
X015911Y019140D01*
X015835Y019370D02*
X015911Y019447D01*
X015911Y019600D01*
X015835Y019677D01*
X015528Y019677D01*
X015451Y019600D01*
X015451Y019447D01*
X015528Y019370D01*
X015605Y019370D01*
X015681Y019447D01*
X015681Y019677D01*
X014911Y019600D02*
X014911Y019446D01*
X014835Y019370D01*
X014528Y019677D01*
X014835Y019677D01*
X014911Y019600D01*
X014835Y019370D02*
X014528Y019370D01*
X014451Y019446D01*
X014451Y019600D01*
X014528Y019677D01*
X014911Y019216D02*
X014911Y018909D01*
X014911Y019063D02*
X014451Y019063D01*
X014605Y018909D01*
X014528Y018756D02*
X014451Y018679D01*
X014451Y018449D01*
X014911Y018449D01*
X014911Y018679D01*
X014835Y018756D01*
X014528Y018756D01*
X013911Y018679D02*
X013911Y018449D01*
X013451Y018449D01*
X013451Y018679D01*
X013528Y018756D01*
X013835Y018756D01*
X013911Y018679D01*
X013911Y018909D02*
X013911Y019216D01*
X013911Y019063D02*
X013451Y019063D01*
X013605Y018909D01*
X013605Y019370D02*
X013451Y019523D01*
X013911Y019523D01*
X013911Y019370D02*
X013911Y019677D01*
X012911Y019677D02*
X012911Y019370D01*
X012605Y019677D01*
X012528Y019677D01*
X012451Y019600D01*
X012451Y019446D01*
X012528Y019370D01*
X012451Y019063D02*
X012911Y019063D01*
X012911Y019216D02*
X012911Y018909D01*
X012835Y018756D02*
X012528Y018756D01*
X012451Y018679D01*
X012451Y018449D01*
X012911Y018449D01*
X012911Y018679D01*
X012835Y018756D01*
X012605Y018909D02*
X012451Y019063D01*
X011911Y019063D02*
X011451Y019063D01*
X011605Y018909D01*
X011528Y018756D02*
X011451Y018679D01*
X011451Y018449D01*
X011911Y018449D01*
X011911Y018679D01*
X011835Y018756D01*
X011528Y018756D01*
X011911Y018909D02*
X011911Y019216D01*
X011835Y019370D02*
X011911Y019446D01*
X011911Y019600D01*
X011835Y019677D01*
X011758Y019677D01*
X011681Y019600D01*
X011681Y019523D01*
X011681Y019600D02*
X011605Y019677D01*
X011528Y019677D01*
X011451Y019600D01*
X011451Y019446D01*
X011528Y019370D01*
X010911Y019370D02*
X010911Y019600D01*
X010835Y019677D01*
X010528Y019677D01*
X010451Y019600D01*
X010451Y019370D01*
X010911Y019370D01*
X010911Y019216D02*
X010451Y019216D01*
X010451Y018909D02*
X010911Y019216D01*
X010911Y018909D02*
X010451Y018909D01*
X010528Y018756D02*
X010451Y018679D01*
X010451Y018526D01*
X010528Y018449D01*
X010835Y018449D01*
X010911Y018526D01*
X010911Y018679D01*
X010835Y018756D01*
X010681Y018756D01*
X010681Y018603D01*
X009911Y018756D02*
X009758Y018602D01*
X009758Y018679D02*
X009758Y018449D01*
X009911Y018449D02*
X009451Y018449D01*
X009451Y018679D01*
X009528Y018756D01*
X009681Y018756D01*
X009758Y018679D01*
X009681Y018909D02*
X009681Y019063D01*
X009451Y019216D02*
X009451Y018909D01*
X009911Y018909D01*
X009911Y019216D01*
X009911Y019370D02*
X009451Y019370D01*
X009451Y019677D01*
X009681Y019523D02*
X009681Y019370D01*
X009681Y018296D02*
X009681Y017989D01*
X009605Y017989D02*
X009451Y018142D01*
X009605Y018296D01*
X009911Y018296D01*
X009911Y017989D02*
X009605Y017989D01*
X004911Y017877D02*
X004835Y017954D01*
X004528Y017954D01*
X004451Y017877D01*
X004451Y017724D01*
X004528Y017647D01*
X004835Y017647D01*
X004911Y017724D01*
X004911Y017877D01*
X004911Y018107D02*
X004451Y018107D01*
X004451Y018338D01*
X004528Y018414D01*
X004681Y018414D01*
X004758Y018338D01*
X004758Y018107D01*
X004758Y018261D02*
X004911Y018414D01*
X004758Y019028D02*
X004451Y019028D01*
X004451Y019335D02*
X004758Y019335D01*
X004911Y019181D01*
X004758Y019028D01*
X004835Y019949D02*
X004528Y019949D01*
X004451Y020025D01*
X004451Y020179D01*
X004528Y020256D01*
X004835Y020256D01*
X004911Y020179D01*
X004911Y020025D01*
X004835Y019949D01*
X004835Y020409D02*
X004451Y020409D01*
X004451Y020716D02*
X004835Y020716D01*
X004911Y020639D01*
X004911Y020486D01*
X004835Y020409D01*
X004451Y020869D02*
X004451Y021176D01*
X004451Y021023D02*
X004911Y021023D01*
X003350Y021234D02*
X003350Y021541D01*
X003043Y021541D02*
X003043Y021234D01*
X003196Y021080D01*
X003350Y021234D01*
X002429Y021310D02*
X002122Y021310D01*
X002352Y021541D01*
X002352Y021080D01*
X001969Y021080D02*
X001662Y021080D01*
X001969Y021387D01*
X001969Y021464D01*
X001892Y021541D01*
X001738Y021541D01*
X001662Y021464D01*
X001508Y021310D02*
X001201Y021310D01*
X001355Y021464D02*
X001355Y021157D01*
X004451Y017494D02*
X004451Y017187D01*
X004451Y017340D02*
X004911Y017340D01*
X004835Y017033D02*
X004528Y017033D01*
X004451Y016956D01*
X004451Y016803D01*
X004528Y016726D01*
X004835Y016726D01*
X004911Y016803D01*
X004911Y016956D01*
X004835Y017033D01*
X004911Y016573D02*
X004451Y016573D01*
X004605Y016419D01*
X004451Y016266D01*
X004911Y016266D01*
X002429Y016157D02*
X002429Y016464D01*
X002352Y016541D01*
X002122Y016541D01*
X002122Y016080D01*
X002352Y016080D01*
X002429Y016157D01*
X001969Y016080D02*
X001969Y016541D01*
X001662Y016541D02*
X001969Y016080D01*
X001662Y016080D02*
X001662Y016541D01*
X001508Y016464D02*
X001432Y016541D01*
X001278Y016541D01*
X001201Y016464D01*
X001201Y016157D01*
X001278Y016080D01*
X001432Y016080D01*
X001508Y016157D01*
X001508Y016310D01*
X001355Y016310D01*
X023451Y015471D02*
X023911Y015471D01*
X025122Y018330D02*
X025122Y018791D01*
X025352Y018791D01*
X025429Y018714D01*
X025429Y018560D01*
X025352Y018484D01*
X025122Y018484D01*
X025276Y018484D02*
X025429Y018330D01*
X025582Y018330D02*
X025889Y018330D01*
X025582Y018330D02*
X025582Y018407D01*
X025889Y018714D01*
X025889Y018791D01*
X025582Y018791D01*
X025411Y018909D02*
X024951Y018909D01*
X024951Y019140D01*
X025028Y019216D01*
X025181Y019216D01*
X025258Y019140D01*
X025258Y018909D01*
X025258Y019063D02*
X025411Y019216D01*
X025411Y019370D02*
X024951Y019677D01*
X024951Y019370D02*
X025411Y019677D01*
X025931Y019637D02*
X025931Y019330D01*
X025931Y021080D02*
X025931Y021387D01*
X025778Y021234D02*
X026085Y021234D01*
D11*
X020681Y019160D02*
X020681Y017460D01*
X020679Y017443D01*
X020675Y017426D01*
X020668Y017410D01*
X020658Y017396D01*
X020645Y017383D01*
X020631Y017373D01*
X020615Y017366D01*
X020598Y017362D01*
X020581Y017360D01*
X019781Y017360D01*
X019764Y017362D01*
X019747Y017366D01*
X019731Y017373D01*
X019717Y017383D01*
X019704Y017396D01*
X019694Y017410D01*
X019687Y017426D01*
X019683Y017443D01*
X019681Y017460D01*
X019681Y019160D01*
X019683Y019177D01*
X019687Y019194D01*
X019694Y019210D01*
X019704Y019224D01*
X019717Y019237D01*
X019731Y019247D01*
X019747Y019254D01*
X019764Y019258D01*
X019781Y019260D01*
X020581Y019260D01*
X020598Y019258D01*
X020615Y019254D01*
X020631Y019247D01*
X020645Y019237D01*
X020658Y019224D01*
X020668Y019210D01*
X020675Y019194D01*
X020679Y019177D01*
X020681Y019160D01*
X020181Y018460D02*
X020181Y018410D01*
X020181Y018210D02*
X020181Y018160D01*
X020581Y016760D02*
X019781Y016760D01*
X019764Y016758D01*
X019747Y016754D01*
X019731Y016747D01*
X019717Y016737D01*
X019704Y016724D01*
X019694Y016710D01*
X019687Y016694D01*
X019683Y016677D01*
X019681Y016660D01*
X019681Y014960D01*
X019683Y014943D01*
X019687Y014926D01*
X019694Y014910D01*
X019704Y014896D01*
X019717Y014883D01*
X019731Y014873D01*
X019747Y014866D01*
X019764Y014862D01*
X019781Y014860D01*
X020581Y014860D01*
X020598Y014862D01*
X020615Y014866D01*
X020631Y014873D01*
X020645Y014883D01*
X020658Y014896D01*
X020668Y014910D01*
X020675Y014926D01*
X020679Y014943D01*
X020681Y014960D01*
X020681Y016660D01*
X020679Y016677D01*
X020675Y016694D01*
X020668Y016710D01*
X020658Y016724D01*
X020645Y016737D01*
X020631Y016747D01*
X020615Y016754D01*
X020598Y016758D01*
X020581Y016760D01*
X020181Y015960D02*
X020181Y015910D01*
X020181Y015710D02*
X020181Y015660D01*
X017831Y017310D02*
X017081Y017310D01*
X017079Y017271D01*
X017073Y017232D01*
X017064Y017194D01*
X017051Y017157D01*
X017034Y017121D01*
X017014Y017088D01*
X016990Y017056D01*
X016964Y017027D01*
X016935Y017001D01*
X016903Y016977D01*
X016870Y016957D01*
X016834Y016940D01*
X016797Y016927D01*
X016759Y016918D01*
X016720Y016912D01*
X016681Y016910D01*
X016642Y016912D01*
X016603Y016918D01*
X016565Y016927D01*
X016528Y016940D01*
X016492Y016957D01*
X016459Y016977D01*
X016427Y017001D01*
X016398Y017027D01*
X016372Y017056D01*
X016348Y017088D01*
X016328Y017121D01*
X016311Y017157D01*
X016298Y017194D01*
X016289Y017232D01*
X016283Y017271D01*
X016281Y017310D01*
X015531Y017310D01*
X015531Y009310D01*
X017831Y009310D01*
X017831Y017310D01*
X013681Y016660D02*
X013681Y014960D01*
X013679Y014943D01*
X013675Y014926D01*
X013668Y014910D01*
X013658Y014896D01*
X013645Y014883D01*
X013631Y014873D01*
X013615Y014866D01*
X013598Y014862D01*
X013581Y014860D01*
X012781Y014860D01*
X012764Y014862D01*
X012747Y014866D01*
X012731Y014873D01*
X012717Y014883D01*
X012704Y014896D01*
X012694Y014910D01*
X012687Y014926D01*
X012683Y014943D01*
X012681Y014960D01*
X012681Y016660D01*
X012683Y016677D01*
X012687Y016694D01*
X012694Y016710D01*
X012704Y016724D01*
X012717Y016737D01*
X012731Y016747D01*
X012747Y016754D01*
X012764Y016758D01*
X012781Y016760D01*
X013581Y016760D01*
X013598Y016758D01*
X013615Y016754D01*
X013631Y016747D01*
X013645Y016737D01*
X013658Y016724D01*
X013668Y016710D01*
X013675Y016694D01*
X013679Y016677D01*
X013681Y016660D01*
X013181Y015960D02*
X013181Y015910D01*
X013181Y015710D02*
X013181Y015660D01*
X013581Y014260D02*
X012781Y014260D01*
X012764Y014258D01*
X012747Y014254D01*
X012731Y014247D01*
X012717Y014237D01*
X012704Y014224D01*
X012694Y014210D01*
X012687Y014194D01*
X012683Y014177D01*
X012681Y014160D01*
X012681Y012460D01*
X012683Y012443D01*
X012687Y012426D01*
X012694Y012410D01*
X012704Y012396D01*
X012717Y012383D01*
X012731Y012373D01*
X012747Y012366D01*
X012764Y012362D01*
X012781Y012360D01*
X013581Y012360D01*
X013598Y012362D01*
X013615Y012366D01*
X013631Y012373D01*
X013645Y012383D01*
X013658Y012396D01*
X013668Y012410D01*
X013675Y012426D01*
X013679Y012443D01*
X013681Y012460D01*
X013681Y014160D01*
X013679Y014177D01*
X013675Y014194D01*
X013668Y014210D01*
X013658Y014224D01*
X013645Y014237D01*
X013631Y014247D01*
X013615Y014254D01*
X013598Y014258D01*
X013581Y014260D01*
X013181Y013460D02*
X013181Y013410D01*
X013181Y013210D02*
X013181Y013160D01*
X013531Y011560D02*
X011831Y011560D01*
X011814Y011558D01*
X011797Y011554D01*
X011781Y011547D01*
X011767Y011537D01*
X011754Y011524D01*
X011744Y011510D01*
X011737Y011494D01*
X011733Y011477D01*
X011731Y011460D01*
X011731Y010660D01*
X011733Y010643D01*
X011737Y010626D01*
X011744Y010610D01*
X011754Y010596D01*
X011767Y010583D01*
X011781Y010573D01*
X011797Y010566D01*
X011814Y010562D01*
X011831Y010560D01*
X013531Y010560D01*
X013548Y010562D01*
X013565Y010566D01*
X013581Y010573D01*
X013595Y010583D01*
X013608Y010596D01*
X013618Y010610D01*
X013625Y010626D01*
X013629Y010643D01*
X013631Y010660D01*
X013631Y011460D01*
X013629Y011477D01*
X013625Y011494D01*
X013618Y011510D01*
X013608Y011524D01*
X013595Y011537D01*
X013581Y011547D01*
X013565Y011554D01*
X013548Y011558D01*
X013531Y011560D01*
X012831Y011060D02*
X012781Y011060D01*
X012581Y011060D02*
X012531Y011060D01*
X012781Y005760D02*
X013581Y005760D01*
X013598Y005758D01*
X013615Y005754D01*
X013631Y005747D01*
X013645Y005737D01*
X013658Y005724D01*
X013668Y005710D01*
X013675Y005694D01*
X013679Y005677D01*
X013681Y005660D01*
X013681Y003960D01*
X013679Y003943D01*
X013675Y003926D01*
X013668Y003910D01*
X013658Y003896D01*
X013645Y003883D01*
X013631Y003873D01*
X013615Y003866D01*
X013598Y003862D01*
X013581Y003860D01*
X012781Y003860D01*
X012764Y003862D01*
X012747Y003866D01*
X012731Y003873D01*
X012717Y003883D01*
X012704Y003896D01*
X012694Y003910D01*
X012687Y003926D01*
X012683Y003943D01*
X012681Y003960D01*
X012681Y005660D01*
X012683Y005677D01*
X012687Y005694D01*
X012694Y005710D01*
X012704Y005724D01*
X012717Y005737D01*
X012731Y005747D01*
X012747Y005754D01*
X012764Y005758D01*
X012781Y005760D01*
X013181Y004960D02*
X013181Y004910D01*
X013181Y004710D02*
X013181Y004660D01*
D12*
X013181Y004710D02*
X013481Y004710D01*
X013481Y004910D02*
X013181Y004910D01*
X012881Y004910D01*
X012881Y004710D02*
X013181Y004710D01*
X012781Y010760D02*
X012781Y011060D01*
X012781Y011360D01*
X012581Y011360D02*
X012581Y011060D01*
X012581Y010760D01*
X012881Y013210D02*
X013181Y013210D01*
X013481Y013210D01*
X013481Y013410D02*
X013181Y013410D01*
X012881Y013410D01*
X012881Y015710D02*
X013181Y015710D01*
X013481Y015710D01*
X013481Y015910D02*
X013181Y015910D01*
X012881Y015910D01*
X019881Y015910D02*
X020181Y015910D01*
X020481Y015910D01*
X020481Y015710D02*
X020181Y015710D01*
X019881Y015710D01*
X019881Y018210D02*
X020181Y018210D01*
X020481Y018210D01*
X020481Y018410D02*
X020181Y018410D01*
X019881Y018410D01*
M02*
